<svg width="24" height="24" viewBox="0 0 24 24" fill="none" xmlns="http://www.w3.org/2000/svg">
<path d="M10.915 18.3567V17.4085V10.013V8.30633C10.915 6.03078 9.091 4.03967 6.691 4.03967C6.691 4.03967 6.691 4.03967 6.595 4.03967H4.003C2.563 4.03967 1.315 5.17745 1.315 6.69449V16.7449C1.315 18.1671 2.563 19.3997 4.003 19.3997H10.915V19.3048V18.3567Z" fill="#7E62CA"/>
<path d="M19.8131 4.03967H17.1963C17.1963 4.03967 17.1963 4.03967 17.0993 4.03967C14.6764 4.03967 12.835 6.04315 12.835 8.33284V10.0501V17.4916V18.4456V19.3042V19.3997H19.7161C21.2668 19.3997 22.4297 18.2549 22.4297 16.7284V6.71098C22.5267 5.18451 21.2668 4.03967 19.8131 4.03967Z" fill="#7E62CA"/>
</svg>
